<?xml version="1.0" encoding="utf-8"?>
<!-- Generator: Adobe Illustrator 16.0.0, SVG Export Plug-In . SVG Version: 6.00 Build 0)  -->
<!DOCTYPE svg PUBLIC "-//W3C//DTD SVG 1.1//EN" "http://www.w3.org/Graphics/SVG/1.1/DTD/svg11.dtd">
<svg version="1.1" id="图层_1" xmlns="http://www.w3.org/2000/svg" xmlns:xlink="http://www.w3.org/1999/xlink" x="0px" y="0px"
	 viewBox="0 0 1310 800" enable-background="new 0 0 1310 800" xml:space="preserve">
	 
<defs>
	<linearGradient id="SVGID_1_" x1="0%" y1="100%" x2="100%" y2="0%">
		<stop  offset="0" style="stop-color:#3FA9F5"/>
		<stop  offset="0.0589" style="stop-color:#4CA0E7"/>
		<stop  offset="0.5252" style="stop-color:#AB5A80"/>
		<stop  offset="0.8485" style="stop-color:#E82E3E"/>
		<stop  offset="1" style="stop-color:#FF1D25"/>
	</linearGradient>
	<linearGradient id="SVGID_2_" x1="100%" y1="100%" x2="0%" y2="0%">
		<stop  offset="0" style="stop-color:#3FA9F5"/>
		<stop  offset="0.0589" style="stop-color:#4CA0E7"/>
		<stop  offset="0.5252" style="stop-color:#AB5A80"/>
		<stop  offset="0.8485" style="stop-color:#E82E3E"/>
		<stop  offset="1" style="stop-color:#FF1D25"/>
	</linearGradient>
	<linearGradient id="SVGID_3_" x1="0%" y1="100%" x2="100%" y2="0%">
			<stop  offset="0" style="stop-color:#457BAC"/>
			<stop  offset="0.1138" style="stop-color:#4B78A8"/>
			<stop  offset="0.2664" style="stop-color:#5C719D"/>
			<stop  offset="0.441" style="stop-color:#78658C"/>
			<stop  offset="0.632" style="stop-color:#9F5473"/>
			<stop  offset="0.8338" style="stop-color:#D13E53"/>
			<stop  offset="1" style="stop-color:#FF2A36"/>
	</linearGradient>
	<linearGradient id="SVGID_4_" x1="0%" y1="100%" x2="0%" y2="0%">
		<stop  offset="0" style="stop-color:#FBF199"/>
		<stop  offset="0.0293" style="stop-color:#FBF29F"/>
		<stop  offset="0.5" style="stop-color:#FFFFFF"/>
		<stop  offset="0.7631" style="stop-color:#FDF7C7"/>
		<stop  offset="1" style="stop-color:#FBF199"/>
	</linearGradient>
</defs>	 
	 
	 
<g id="body">
	<g>
		<rect x="390" y="227" fill="#F2F2F2" stroke="#000000" stroke-width="2" stroke-miterlimit="10" width="50" height="359"/>
		<rect x="382" y="140" fill="#B3B3B3" stroke="#000000" stroke-width="2" stroke-miterlimit="10" width="8" height="470"/>
		<rect x="390" y="118" fill="#F2F2F2" stroke="#000000" stroke-width="2" stroke-miterlimit="10" width="41" height="109"/>
		<rect x="390" y="227" fill="#FFFFFF" stroke="#000000" stroke-width="2" stroke-miterlimit="10" width="50" height="125"/>
		<rect x="382" y="140" fill="#FFFFFF" stroke="#000000" stroke-width="2" stroke-miterlimit="10" width="8" height="50"/>
		<rect x="382" y="572" fill="#FFFFFF" stroke="#000000" stroke-width="2" stroke-miterlimit="10" width="8" height="77"/>
	</g>
	<g>
		<rect x="440" y="148" fill="#FFFFFF" stroke="#000000" stroke-width="2" stroke-miterlimit="10" width="45" height="462"/>
		<rect x="485" y="148" fill="#FFFFFF" stroke="#000000" stroke-width="2" stroke-miterlimit="10" width="48" height="462"/>
		<rect x="533" y="148" fill="#FFFFFF" stroke="#000000" stroke-width="2" stroke-miterlimit="10" width="45" height="462"/>
		<rect x="578" y="148" fill="#FFFFFF" stroke="#000000" stroke-width="2" stroke-miterlimit="10" width="50" height="462"/>
		<rect x="628" y="148" fill="#FFFFFF" stroke="#000000" stroke-width="2" stroke-miterlimit="10" width="46" height="462"/>
		<rect x="674" y="148" fill="#FFFFFF" stroke="#000000" stroke-width="2" stroke-miterlimit="10" width="46" height="462"/>
		<rect x="720" y="148" fill="#FFFFFF" stroke="#000000" stroke-width="2" stroke-miterlimit="10" width="46" height="462"/>
		<rect x="766" y="148" fill="#FFFFFF" stroke="#000000" stroke-width="2" stroke-miterlimit="10" width="47" height="462"/>
		<rect x="813" y="148" fill="#FFFFFF" stroke="#000000" stroke-width="2" stroke-miterlimit="10" width="45" height="462"/>
		<rect x="858" y="148" fill="#FFFFFF" stroke="#000000" stroke-width="2" stroke-miterlimit="10" width="50" height="462"/>
		<rect x="908" y="322" fill="#FFFFFF" stroke="#000000" stroke-width="2" stroke-miterlimit="10" width="51" height="288"/>
		<rect x="923" y="367" fill="#FFFFFF" stroke="#000000" stroke-width="2" stroke-miterlimit="10" width="33" height="223"/>
		<path fill="#FFFFFF" stroke="#000000" stroke-width="2" stroke-miterlimit="10" d="M412,551.596c3,16.544,14,29.617,28,37.098
			V340.867c-14,6.234-25,18.064-28,37.099V551.596z"/>
		<path fill="#FFFFFF" stroke="#000000" stroke-width="2" stroke-miterlimit="10" d="M935,566.679c-5,16.896-14,30.249-27,37.886
			V351.478c13,6.364,22,18.447,27,37.884V566.679z"/>
	</g>
	<rect x="438" y="244" fill="none" stroke="#000000" stroke-width="2" stroke-miterlimit="10" width="479" height="78"/>
	<g>
		<rect x="440.5" y="609.5" fill="#FFFFFF" stroke="#000000" stroke-miterlimit="10" width="45" height="39"/>
		<rect x="485.5" y="609.5" fill="#FFFFFF" stroke="#000000" stroke-miterlimit="10" width="48" height="39"/>
		<rect x="533.5" y="609.5" fill="#FFFFFF" stroke="#000000" stroke-miterlimit="10" width="46" height="39"/>
		<rect x="579.5" y="609.5" fill="#FFFFFF" stroke="#000000" stroke-miterlimit="10" width="49" height="39"/>
		<rect x="628.5" y="609.5" fill="#FFFFFF" stroke="#000000" stroke-miterlimit="10" width="46" height="39"/>
		<rect x="674.5" y="609.5" fill="#FFFFFF" stroke="#000000" stroke-miterlimit="10" width="46" height="39"/>
		<rect x="720.5" y="609.5" fill="#FFFFFF" stroke="#000000" stroke-miterlimit="10" width="46" height="39"/>
		<rect x="766.5" y="609.5" fill="#FFFFFF" stroke="#000000" stroke-miterlimit="10" width="47" height="39"/>
		<rect x="813.5" y="609.5" fill="#FFFFFF" stroke="#000000" stroke-miterlimit="10" width="46" height="39"/>
		<rect x="859.5" y="609.5" fill="#FFFFFF" stroke="#000000" stroke-miterlimit="10" width="49" height="39"/>
		<rect x="908.5" y="609.5" fill="#FFFFFF" stroke="#000000" stroke-miterlimit="10" width="51" height="39"/>
	</g>
	
		<rect id="top1" x="433" y="143" fill="#FFFFFF" stroke="#000000" stroke-width="2" stroke-miterlimit="10" width="482" height="5"/>
</g>
<g id="red0_top">
	<rect x="447.5" y="155.5" fill="#ED1C24" stroke="#000000" stroke-width="2" stroke-miterlimit="10" width="33" height="112"/>
	<rect x="433.5" y="164.5" fill="#ED1C24" stroke="#000000" stroke-width="2" stroke-miterlimit="10" width="14" height="62"/>
	<rect x="494.5" y="155.5" fill="#ED1C24" stroke="#000000" stroke-width="2" stroke-miterlimit="10" width="31" height="112"/>
	<rect x="480.5" y="164.5" fill="#ED1C24" stroke="#000000" stroke-width="2" stroke-miterlimit="10" width="14" height="62"/>
	<rect x="540.5" y="155.5" fill="#ED1C24" stroke="#000000" stroke-width="2" stroke-miterlimit="10" width="33" height="112"/>
	<rect x="525.5" y="164.5" fill="#ED1C24" stroke="#000000" stroke-width="2" stroke-miterlimit="10" width="15" height="62"/>
	<rect x="589.5" y="155.5" fill="#ED1C24" stroke="#000000" stroke-width="2" stroke-miterlimit="10" width="32" height="112"/>
	<rect x="573.5" y="164.5" fill="#ED1C24" stroke="#000000" stroke-width="2" stroke-miterlimit="10" width="16" height="62"/>
	<rect x="635.5" y="155.5" fill="#ED1C24" stroke="#000000" stroke-width="2" stroke-miterlimit="10" width="32" height="112"/>
	<rect x="621.5" y="164.5" fill="#ED1C24" stroke="#000000" stroke-width="2" stroke-miterlimit="10" width="14" height="62"/>
	<rect x="682.5" y="155.5" fill="#ED1C24" stroke="#000000" stroke-width="2" stroke-miterlimit="10" width="31" height="112"/>
	<rect x="667.5" y="164.5" fill="#ED1C24" stroke="#000000" stroke-width="2" stroke-miterlimit="10" width="15" height="62"/>
	<rect x="728.5" y="155.5" fill="#ED1C24" stroke="#000000" stroke-width="2" stroke-miterlimit="10" width="33" height="112"/>
	<rect x="713.5" y="164.5" fill="#ED1C24" stroke="#000000" stroke-width="2" stroke-miterlimit="10" width="15" height="62"/>
	<rect x="775.5" y="155.5" fill="#ED1C24" stroke="#000000" stroke-width="2" stroke-miterlimit="10" width="33" height="112"/>
	<rect x="761.5" y="164.5" fill="#ED1C24" stroke="#000000" stroke-width="2" stroke-miterlimit="10" width="14" height="62"/>
	<rect x="823.5" y="155.5" fill="#ED1C24" stroke="#000000" stroke-width="2" stroke-miterlimit="10" width="32" height="112"/>
	<rect x="808.5" y="164.5" fill="#ED1C24" stroke="#000000" stroke-width="2" stroke-miterlimit="10" width="15" height="62"/>
	<rect x="869.5" y="155.5" fill="#ED1C24" stroke="#000000" stroke-width="2" stroke-miterlimit="10" width="33" height="112"/>
	<rect x="855.5" y="164.5" fill="#ED1C24" stroke="#000000" stroke-width="2" stroke-miterlimit="10" width="14" height="62"/>
	<rect x="902.5" y="164.5" fill="#ED1C24" stroke="#000000" stroke-width="2" stroke-miterlimit="10" width="13" height="62"/>
</g>
<g id="red1_side">
	<rect x="873" y="25" fill="#ED1C24" stroke="#000000" stroke-width="2" stroke-miterlimit="10" width="8" height="72"/>
	<rect x="881" y="44" fill="#ED1C24" stroke="#000000" stroke-width="2" stroke-miterlimit="10" width="21" height="33"/>
	<path fill="#ED1C24" stroke="#000000" stroke-width="2" stroke-miterlimit="10" d="M967,96.725c-2,3.288-9.432,8.275-13.18,8.275
		h-39.675c-3.63,0-11.146-5.083-12.146-8.275V25.921c11-11.652,54-12.818,65,0V96.725z"/>
	<rect x="915" y="105" fill="#ED1C24" stroke="#000000" stroke-width="2" stroke-miterlimit="10" width="39" height="13"/>
	<rect x="897" y="118" fill="#ED1C24" stroke="#000000" stroke-width="2" stroke-miterlimit="10" width="75" height="8"/>
	<rect x="915" y="126" fill="#ED1C24" stroke="#000000" stroke-width="2" stroke-miterlimit="10" width="44" height="110"/>
	<rect x="915" y="236" fill="#ED1C24" stroke="#000000" stroke-width="2" stroke-miterlimit="10" width="44" height="24"/>
	<rect x="915" y="260" fill="#ED1C24" stroke="#000000" stroke-width="2" stroke-miterlimit="10" width="44" height="37"/>
	<rect x="915" y="297" fill="#ED1C24" stroke="#000000" stroke-width="2" stroke-miterlimit="10" width="44" height="55"/>
</g>
<g id="red2_bottom">
	<path fill="#FFFFFF" stroke="#000000" stroke-width="2" stroke-miterlimit="10" d="M440,635.316c0,4.362-3.758,8.684-8.255,8.684
		h-32.551c-4.496,0-9.194-4.321-9.194-8.684v-44.737c0-4.358,4.698-4.579,9.194-4.579h32.551c4.497,0,8.255,0.221,8.255,4.579
		V635.316z"/>
	<g>
		<path fill="#FFFFFF" stroke="#000000" stroke-width="2" stroke-miterlimit="10" d="M956,656.182c-4,7.771-33,7.066-41,0V649h41
			V656.182z"/>
				
		<path fill="#FFFFFF" stroke="#000000" stroke-width="2" stroke-miterlimit="10" d="M906,656.182c-4,7.771-34,7.066-42,0V649h42
			V656.182z"/>
	
		<path fill="#FFFFFF" stroke="#000000" stroke-width="2" stroke-miterlimit="10" d="M857,656.182c-4,7.771-35,7.066-42,0V649h42
			V656.182z"/>
	
		<path fill="#FFFFFF" stroke="#000000" stroke-width="2" stroke-miterlimit="10" d="M810,656.182c-4,7.771-34,7.066-42,0V649h42
			V656.182z"/>
	
		<path fill="#FFFFFF" stroke="#000000" stroke-width="2" stroke-miterlimit="10" d="M764,656.182c-3,7.771-35,7.066-41,0V649h41
			V656.182z"/>
	
		<path fill="#FFFFFF" stroke="#000000" stroke-width="2" stroke-miterlimit="10" d="M717,656.182c-4,7.771-34,7.066-41,0V649h41
			V656.182z"/>
	
		<path fill="#FFFFFF" stroke="#000000" stroke-width="2" stroke-miterlimit="10" d="M672,656.182c-5,7.771-36,7.066-41,0V649h41
			V656.182z"/>
	
		<path fill="#FFFFFF" stroke="#000000" stroke-width="2" stroke-miterlimit="10" d="M625,656.182c-4,7.771-35,7.066-42,0V649h42
			V656.182z"/>
	
		<path fill="#FFFFFF" stroke="#000000" stroke-width="2" stroke-miterlimit="10" d="M576,656.182c-3,7.771-35,7.066-41,0V649h41
			V656.182z"/>
	
		<path fill="#FFFFFF" stroke="#000000" stroke-width="2" stroke-miterlimit="10" d="M530,656.182c-5,7.771-35,7.066-43,0V649h43
			V656.182z"/>
	
		<path fill="#FFFFFF" stroke="#000000" stroke-width="2" stroke-miterlimit="10" d="M483,656.182c-3,7.771-34,7.066-41,0V649h41
			V656.182z"/>
	
		<path fill="#FFFFFF" stroke="#000000" stroke-width="2" stroke-miterlimit="10" d="M434,656.182c-3,7.771-33,7.066-42,0V649h42
			V656.182z"/>
	</g>
	<rect x="350" y="649" fill="none" stroke="#000000" stroke-width="2" stroke-miterlimit="10" width="656" height="15"/>
	<g>
		<g>
			
			<path fill="url(#SVGID_1_)" stroke="#000000" stroke-width="2" stroke-miterlimit="10" d="M483,635.557
				c0,3.924-2.505,8.443-7.157,8.443H450.57c-4.655,0-8.57-4.52-8.57-8.443v-16.573c0-3.922,3.915-5.983,8.57-5.983h25.273
				c4.652,0,7.157,2.062,7.157,5.983V635.557z"/>
			
			<path fill="url(#SVGID_2_)" stroke="#000000" stroke-width="2" stroke-miterlimit="10" d="M954,635.557
				c0,3.924-2.296,8.443-6.947,8.443h-25.273c-4.655,0-8.779-4.52-8.779-8.443v-16.573c0-3.922,4.124-5.983,8.779-5.983h25.273
				c4.651,0,6.947,2.062,6.947,5.983V635.557z"/>
			<path fill="#FF1D25" stroke="#000000" stroke-width="2" stroke-miterlimit="10" d="M530,635.557c0,3.924-3.117,8.443-7.77,8.443
				h-25.272c-4.655,0-9.958-4.52-9.958-8.443v-16.573c0-3.922,5.303-5.983,9.958-5.983h25.272c4.653,0,7.77,2.062,7.77,5.983
				V635.557z"/>
			<path fill="#FF1D25" stroke="#000000" stroke-width="2" stroke-miterlimit="10" d="M576,635.557c0,3.924-2.728,8.443-7.381,8.443
				h-25.272c-4.656,0-8.347-4.52-8.347-8.443v-16.573c0-3.922,3.691-5.983,8.347-5.983h25.272c4.653,0,7.381,2.062,7.381,5.983
				V635.557z"/>
			<path fill="#FF1D25" stroke="#000000" stroke-width="2" stroke-miterlimit="10" d="M625,635.557c0,3.924-2.288,8.443-6.939,8.443
				h-25.273c-4.655,0-9.788-4.52-9.788-8.443v-16.573c0-3.922,5.132-5.983,9.788-5.983h25.273c4.652,0,6.939,2.062,6.939,5.983
				V635.557z"/>
			<path fill="#FF1D25" stroke="#000000" stroke-width="2" stroke-miterlimit="10" d="M672,635.557c0,3.924-2.594,8.443-7.246,8.443
				h-25.272c-4.655,0-8.481-4.52-8.481-8.443v-16.573c0-3.922,3.827-5.983,8.481-5.983h25.272c4.652,0,7.246,2.062,7.246,5.983
				V635.557z"/>
			<path fill="#FF1D25" stroke="#000000" stroke-width="2" stroke-miterlimit="10" d="M717,635.557c0,3.924-2.12,8.443-6.774,8.443
				h-25.271c-4.655,0-8.954-4.52-8.954-8.443v-16.573c0-3.922,4.299-5.983,8.954-5.983h25.271c4.654,0,6.774,2.062,6.774,5.983
				V635.557z"/>
			<path fill="#FF1D25" stroke="#000000" stroke-width="2" stroke-miterlimit="10" d="M764,635.557c0,3.924-2.732,8.443-7.387,8.443
				h-25.27c-4.657,0-8.344-4.52-8.344-8.443v-16.573c0-3.922,3.687-5.983,8.344-5.983h25.27c4.654,0,7.387,2.062,7.387,5.983
				V635.557z"/>
			<path fill="#FF1D25" stroke="#000000" stroke-width="2" stroke-miterlimit="10" d="M810,635.557c0,3.924-2.344,8.443-6.997,8.443
				h-25.27c-4.658,0-9.733-4.52-9.733-8.443v-16.573c0-3.922,5.075-5.983,9.733-5.983h25.27c4.653,0,6.997,2.062,6.997,5.983
				V635.557z"/>
			<path fill="#FF1D25" stroke="#000000" stroke-width="2" stroke-miterlimit="10" d="M857,635.557c0,3.924-2.954,8.443-7.608,8.443
				h-25.273c-4.655,0-9.118-4.52-9.118-8.443v-16.573c0-3.922,4.463-5.983,9.118-5.983h25.273c4.654,0,7.608,2.062,7.608,5.983
				V635.557z"/>
			<path fill="#FF1D25" stroke="#000000" stroke-width="2" stroke-miterlimit="10" d="M906,635.557c0,3.924-3.128,8.443-7.778,8.443
				h-25.271c-4.656,0-8.951-4.52-8.951-8.443v-16.573c0-3.922,4.295-5.983,8.951-5.983h25.271c4.65,0,7.778,2.062,7.778,5.983
				V635.557z"/>
		</g>
		
		<rect x="399" y="597" fill="url(#SVGID_3_)" stroke="#000000" stroke-width="2" stroke-miterlimit="10" width="32" height="39"/>
	</g>
</g>
<g>
	<path fill="#FFFFFF" stroke="#000000" stroke-miterlimit="10" d="M937.5,655.5c0,1.104-0.896,2-2,2l0,0c-1.104,0-2-0.896-2-2v-10
		c0-1.104,0.896-2,2-2l0,0c1.104,0,2,0.896,2,2V655.5z"/>
	<path fill="#FFFFFF" stroke="#000000" stroke-miterlimit="10" d="M885.5,655.5c0,1.104-0.896,2-2,2l0,0c-1.104,0-2-0.896-2-2v-10
		c0-1.104,0.896-2,2-2l0,0c1.104,0,2,0.896,2,2V655.5z"/>
	<path fill="#FFFFFF" stroke="#000000" stroke-miterlimit="10" d="M837.5,655.549c0,1.35-1.063,1.951-2.411,1.951h-0.016
		c-1.349,0-1.573-0.602-1.573-1.951v-9.809c0-1.349,0.225-2.24,1.573-2.24h0.016c1.348,0,2.411,0.892,2.411,2.24V655.549z"/>
	<path fill="#FFFFFF" stroke="#000000" stroke-miterlimit="10" d="M789.5,655.5c0,1.104-0.896,2-2,2l0,0c-1.104,0-2-0.896-2-2v-10
		c0-1.104,0.896-2,2-2l0,0c1.104,0,2,0.896,2,2V655.5z"/>
	<path fill="#FFFFFF" stroke="#000000" stroke-miterlimit="10" d="M745.5,655.852c0,1.347-1.037,2.441-2.5,2.441l0,0
		c-1.461,0-2.5-1.095-2.5-2.441v-9.675c0-1.349,1.039-2.441,2.5-2.441l0,0c1.463,0,2.5,1.093,2.5,2.441V655.852z"/>
	<path fill="#FFFFFF" stroke="#000000" stroke-miterlimit="10" d="M697.5,655.5c0,1.104-0.896,2-2,2l0,0c-1.104,0-2-0.896-2-2v-10
		c0-1.104,0.896-2,2-2l0,0c1.104,0,2,0.896,2,2V655.5z"/>
	<path fill="#FFFFFF" stroke="#000000" stroke-miterlimit="10" d="M652.5,655.829c0,1.347-1.151,2.44-2.5,2.44l0,0
		c-1.35,0-2.5-1.094-2.5-2.44v-9.768c0-1.347,1.15-2.441,2.5-2.441l0,0c1.349,0,2.5,1.095,2.5,2.441V655.829z"/>
	<path fill="#FFFFFF" stroke="#000000" stroke-miterlimit="10" d="M605.5,655.5c0,1.104-0.896,2-2,2l0,0c-1.104,0-2-0.896-2-2v-10
		c0-1.104,0.896-2,2-2l0,0c1.104,0,2,0.896,2,2V655.5z"/>
	<path fill="#FFFFFF" stroke="#000000" stroke-miterlimit="10" d="M556.5,655.5c0,1.104-0.896,2-2,2l0,0c-1.104,0-2-0.896-2-2v-10
		c0-1.104,0.896-2,2-2l0,0c1.104,0,2,0.896,2,2V655.5z"/>
	<path fill="#FFFFFF" stroke="#000000" stroke-miterlimit="10" d="M509.5,655.5c0,1.104-0.896,2-2,2l0,0c-1.104,0-2-0.896-2-2v-10
		c0-1.104,0.896-2,2-2l0,0c1.104,0,2,0.896,2,2V655.5z"/>
	<path fill="#FFFFFF" stroke="#000000" stroke-miterlimit="10" d="M463.5,655.5c0,1.104-0.896,2-2,2l0,0c-1.104,0-2-0.896-2-2v-10
		c0-1.104,0.896-2,2-2l0,0c1.104,0,2,0.896,2,2V655.5z"/>
	<path fill="#FFFFFF" stroke="#000000" stroke-miterlimit="10" d="M416.5,655.5c0,1.104-0.896,2-2,2l0,0c-1.104,0-2-0.896-2-2v-10
		c0-1.104,0.896-2,2-2l0,0c1.104,0,2,0.896,2,2V655.5z"/>
</g>
<g>
	<path fill="#FF0000" stroke="#000000" stroke-miterlimit="10" d="M481.5,338.433c-12,11.394-28,10.376-37,0V321.5h37V338.433z"/>
	<path fill="#FF0000" stroke="#000000" stroke-miterlimit="10" d="M527.5,338.433c-11,11.394-26,10.376-37,0V321.5h37V338.433z"/>
	<path fill="#FF0000" stroke="#000000" stroke-miterlimit="10" d="M575.5,338.433c-14,11.394-29,10.376-38,0V321.5h38V338.433z"/>
	<path fill="#FF0000" stroke="#000000" stroke-miterlimit="10" d="M622.5,338.433c-11,11.394-30,10.376-37,0V321.5h37V338.433z"/>
	<path fill="#FF0000" stroke="#000000" stroke-miterlimit="10" d="M668.5,338.433c-8,11.394-27,10.376-35,0V321.5h35V338.433z"/>
	<path fill="#FF0000" stroke="#000000" stroke-miterlimit="10" d="M715.5,337.457c-11,11.394-28,10.376-37,0V321.5h37V337.457z"/>
	<path fill="#FF0000" stroke="#000000" stroke-miterlimit="10" d="M762.5,338.433c-14,11.394-29,10.376-38,0V321.5h38V338.433z"/>
	<path fill="#FF0000" stroke="#000000" stroke-miterlimit="10" d="M807.5,337.457c-11,11.394-29,10.376-34,0V321.5h34V337.457z"/>
	<path fill="#FF0000" stroke="#000000" stroke-miterlimit="10" d="M855.5,337.457c-14,11.394-31,10.376-37,0V321.5h37V337.457z"/>
	<path fill="#FF0000" stroke="#000000" stroke-miterlimit="10" d="M903.5,337.457c-15,11.394-29,10.376-38,0V321.5h38V337.457z"/>
</g>
<g>
	<g>
		<rect x="959" y="140" fill="#B3B3B3" stroke="#000000" stroke-width="2" stroke-miterlimit="10" width="9" height="481"/>
		<rect x="946" y="386" fill="#B3B3B3" stroke="#000000" stroke-width="2" stroke-miterlimit="10" width="30" height="123"/>
	</g>
	<g>
		<rect x="956.5" y="189.5" fill="#FFFFFF" stroke="#000000" stroke-miterlimit="10" width="18" height="7"/>
		<rect x="974.5" y="174.5" fill="#FFFFFF" stroke="#000000" stroke-miterlimit="10" width="9" height="36"/>
	</g>
	<g id="fan">
		<path fill="#FFFFFF" stroke="#000000" stroke-width="2" stroke-miterlimit="10" d="M1088.917,414.964
			c-5.758,0-16.684,0.036-16.684,0.036H976v66.238c3-0.496,6.058-0.535,8.941-0.535c4.771,0,9.879,1.297,14.213,2.297H1002v0.287
			c7,3.353,16.844,9.535,22.299,17.481c1.637,5.693,3.845,11.534,6.83,16.505c0.168,0.751,0.196,1.727,0.324,2.727h0.979
			c12.072,19,32.854,30.072,56.485,30.072c37.305,0,67.548-30.249,67.548-67.553
			C1156.465,445.212,1126.222,414.964,1088.917,414.964z"/>
		<circle fill="#FFFFFF" stroke="#000000" stroke-width="2" stroke-miterlimit="10" cx="1090.334" cy="481.048" r="51.873"/>
		<g>
			<path d="M1054.62,466.705c0.513,0.279,1.035,0.535,1.591,0.74l31.895,14.85l-16.401-30.944c-0.186-0.447-0.438-0.851-0.673-1.269
				l-1.456-2.747l-0.279,0.345c-2.228-2.36-5.36-3.854-8.862-3.854c-6.742,0-12.209,5.466-12.209,12.208
				c0,4.414,2.365,8.245,5.874,10.387l-0.022,0.03L1054.62,466.705z"/>
			<path d="M1106.472,449.402c-0.297,0.502-0.568,1.016-0.79,1.564l-15.889,31.39l31.467-15.377c0.449-0.171,0.862-0.41,1.29-0.63
				l2.791-1.366l-0.332-0.289c2.43-2.149,4.025-5.231,4.14-8.732c0.221-6.737-5.061-12.381-11.799-12.601
				c-4.412-0.146-8.318,2.09-10.579,5.527l-0.025-0.025L1106.472,449.402z"/>
			<path d="M1123.166,498.301c-0.515-0.272-1.039-0.523-1.599-0.719l-32.087-14.43l16.805,30.726
				c0.194,0.443,0.449,0.844,0.691,1.259l1.494,2.728l0.27-0.347c2.258,2.332,5.411,3.782,8.913,3.736
				c6.742-0.087,12.136-5.622,12.046-12.366c-0.058-4.412-2.467-8.213-6.006-10.311l0.022-0.028L1123.166,498.301z"/>
			<path d="M1074.432,515.622c0.271-0.516,0.521-1.042,0.716-1.603l14.43-32.084l-30.728,16.806
				c-0.441,0.191-0.841,0.446-1.259,0.69l-2.726,1.491l0.349,0.273c-2.331,2.258-3.785,5.41-3.738,8.913
				c0.086,6.741,5.622,12.135,12.364,12.044c4.414-0.058,8.216-2.468,10.313-6.006l0.025,0.021L1074.432,515.622z"/>
		</g>
	</g>
	
	<rect x="946.5" y="414.5" fill="url(#SVGID_4_)" stroke="#000000" stroke-miterlimit="10" width="30" height="66"/>
</g>
<g>
	<g>
		<rect x="275" y="586" fill="#3FA9F5" stroke="#000000" stroke-width="2" stroke-miterlimit="10" width="115" height="44"/>
		<rect x="268" y="576" fill="#3FA9F5" stroke="#000000" stroke-width="2" stroke-miterlimit="10" width="7" height="65"/>
	</g>
	<g>
		<rect x="305" y="630" fill="#FFFFFF" stroke="#000000" stroke-width="2" stroke-miterlimit="10" width="77" height="14"/>
		<rect x="299" y="619" fill="#FFFFFF" stroke="#000000" stroke-width="2" stroke-miterlimit="10" width="6" height="34"/>
	</g>
</g>
<g>
	<path fill="#FFFFFF" stroke="#000000" stroke-width="2" stroke-miterlimit="10" d="M346.964,231H112v120h234.964
		c0,0,40.036-33.858,91.036-28.364v-70.804C390,263.428,346.964,231,346.964,231z"/>
	<g>
		<rect x="319" y="351" fill="#FFFFFF" stroke="#000000" stroke-width="2" stroke-miterlimit="10" width="12" height="18"/>
		<rect x="316" y="369" fill="#FFFFFF" stroke="#000000" stroke-width="2" stroke-miterlimit="10" width="17" height="8"/>
	</g>
	<g>
		<rect x="270" y="231" stroke="#000000" stroke-width="2" stroke-miterlimit="10" width="6" height="119"/>
		<rect x="267" y="224" stroke="#000000" stroke-width="2" stroke-miterlimit="10" width="14" height="7"/>
		<rect x="267" y="351" stroke="#000000" stroke-width="2" stroke-miterlimit="10" width="14" height="6"/>
	</g>
</g>
<g>
	<rect x="382" y="113" fill="#B3B3B3" stroke="#000000" stroke-width="2" stroke-miterlimit="10" width="58" height="5"/>
	<rect x="440" y="108" fill="#FFFFFF" stroke="#000000" stroke-width="2" stroke-miterlimit="10" width="4" height="21"/>
	<rect x="376" y="108" fill="#FFFFFF" stroke="#000000" stroke-width="2" stroke-miterlimit="10" width="6" height="21"/>
</g>

	<g id="dash_container">

	</g>
	<g id="fire_container">

	</g>
	<g id="dash_smoke_container">

	</g>



</svg>
