<?xml version="1.0" encoding="utf-8"?>
<!-- Generator: Adobe Illustrator 16.0.0, SVG Export Plug-In . SVG Version: 6.00 Build 0)  -->
<!DOCTYPE svg PUBLIC "-//W3C//DTD SVG 1.1//EN" "http://www.w3.org/Graphics/SVG/1.1/DTD/svg11.dtd">
<svg version="1.1" id="图层_1" xmlns="http://www.w3.org/2000/svg" xmlns:xlink="http://www.w3.org/1999/xlink" x="0px" y="0px"
	 width="286px" height="117px" viewBox="0 0 286 117" enable-background="new 0 0 286 117" xml:space="preserve">
<desc>Created with Sketch.</desc>
<g transform="matrix(1, 0, 180, 1, 0, 0);">
	
		<g id="fire" transform="translate(140.317099, 56.953642) rotate(-270.000000) translate(-140.317099, -56.953642) translate(83.363456, -83.363456)">
		<path id="Path-8" fill="#D91409" stroke="#6D727F" d="M70.938,262.998c0.881-6.803,4.806-11.053,6.127-22.529
			c1.322-11.477-1.864-20.238-5.459-30.299c0,12.186-8.438,21.222-8.438,35.569c0,14.347,2.727,20.101,6.89,33.905
			C70.057,271.755,70.057,269.802,70.938,262.998z"/>
		<path id="Path-8-Copy-7" fill="#D91409" stroke="#6D727F" d="M54.099,165.309c0.503,5.031,0.627,6.276,1.622,10.475
			c0.995,4.197,3.769,6.279,5.343,13.387s0.102,13.205-1.551,20.195c-0.776-7.771-6.733-12.183-7.648-21.332
			S52.324,174.779,54.099,165.309L54.099,165.309z"/>
		<path id="Path-19-Copy" fill="#D91409" stroke="#6D727F" d="M10.082,88.264c1.22-5.306,7.574-9.048,11.792-4.679
			c4.218,4.37,2.854,22.474-1.262,40.73c-4.117,18.257-2.474,37.325,4.116,53.882s18.984,27.332,26.349,32.52
			c-4.136-9.09-8.398-25.232-8.398-41.355c0-16.124,5.415-22.18,11.268-23.482c5.854-1.304,12.361,6.308,14.118,14.119
			c1.757,7.813,2.376,16.59,0.593,25.312c10.221-8.722,18.368-21.304,19.672-37.38c1.305-16.075-4.379-32.44-5.621-48.043
			C81.467,84.284,84.36,70.4,90.665,68.426c6.306-1.973,10.286,4.938,12.474,13.427s3.021,19.302,0.771,34.687
			c3.531-9.005,12.171-35.358,9.489-57.884c-1.312-11.01-0.021-52.275-51.924-58.218S0,50.68,0,68.426
			c0,17.747,2.945,31.461,8.863,44.682C7.624,101.249,8.863,93.57,10.082,88.264z"/>
		<path id="Path-19-Copy-2" fill="#F8E81C" fill-opacity="0.8" stroke="#F67F23" stroke-width="2" d="M33.012,46.527
			c0.611-2.658,3.796-4.534,5.91-2.344c2.114,2.189,1.43,11.262-0.633,20.412c-2.063,9.149-1.24,18.706,2.063,27.003
			c3.302,8.298,9.514,13.698,13.205,16.298c-2.073-4.556-4.209-12.646-4.209-20.726c0-8.081,2.713-11.115,5.647-11.769
			s6.194,3.161,7.075,7.076s1.191,8.314,0.298,12.685c5.122-4.37,9.205-10.676,9.858-18.732c0.654-8.057-2.194-16.259-2.816-24.078
			c-0.623-7.819,0.827-14.777,3.986-15.767c3.16-0.988,5.155,2.475,6.252,6.729c1.096,4.254,1.514,9.674,0.387,17.384
			c1.77-4.513,6.1-17.72,4.755-29.009c-0.657-5.518-0.011-26.198-26.022-29.177s-30.809,25.18-30.809,34.073
			c0,8.895,1.476,15.767,4.442,22.393C31.78,53.036,32.401,49.186,33.012,46.527z"/>
		<path id="Path-8-Copy" fill="#FFEF1C" fill-opacity="0.8" stroke="#F88708" stroke-width="2" d="M35.047,154.018
			c0.568-4.394,3.103-7.137,3.956-14.547s-1.204-13.067-3.525-19.563c0,7.867-5.448,13.702-5.448,22.965
			c0,9.264,1.761,12.979,4.449,21.892C34.479,159.67,34.479,158.411,35.047,154.018z"/>
	</g>
</g>
</svg>
